FFmpeg version SVN-r25716, Copyright (c) 2000-2010 the FFmpeg developers  built on Nov 10 2010 12:23:18 with gcc 4.1.2 20080704 (Red Hat 4.1.2-48)  configuration: --enable-libmp3lame --enable-shared --disable-mmx --arch=x86_64  libavutil     50.33. 0 / 50.33. 0  libavcore      0.12. 1 /  0.12. 1  libavcodec    52.94. 4 / 52.94. 4  libavformat   52.84. 0 / 52.84. 0  libavdevice   52. 2. 2 / 52. 2. 2  libavfilter    1.59. 0 /  1.59. 0  libswscale     0.12. 0 /  0.12. 0Input #0, avi, from '/RAID10/data/converted_video_files/47667.avi':  Duration: 00:00:06.85, start: 0.000000, bitrate: 188325 kb/s    Stream #0.0: Video: msvideo1, rgb555le, 1024x1024, 20 tbr, 20 tbn, 20 tbc[buffer @ 0x155dd690] w:1024 h:1024 pixfmt:rgb555le[ffsink @ 0x155dd900] auto-inserting filter 'auto-inserted scaler 0' between the filter 'src' and the filter 'out'[scale @ 0x155dc810] w:1024 h:1024 fmt:rgb555le -> w:1024 h:1024 fmt:yuv420p flags:0x4Output #0, flv, to '/RAID10/data/converted_video_files/47667.flv':  Metadata:    encoder         : Lavf52.84.0    Stream #0.0: Video: flv, yuv420p, 1024x1024, q=2-31, 600 kb/s, 1k tbn, 24 tbcStream mapping:  Stream #0.0 -> #0.0Press [q] to stop encodingframe=    8 fps=  0 q=12.3 size=     663kB time=0.37 bitrate=14520.7kbits/s    frame=   17 fps= 14 q=31.0 size=     696kB time=0.83 bitrate=6845.1kbits/s    frame=   28 fps= 16 q=31.0 size=     729kB time=1.38 bitrate=4341.4kbits/s    frame=   38 fps= 17 q=31.0 size=     761kB time=1.87 bitrate=3326.0kbits/s    frame=   47 fps= 17 q=31.0 size=     766kB time=2.33 bitrate=2689.9kbits/s    frame=   57 fps= 17 q=31.0 size=     798kB time=2.83 bitrate=2306.9kbits/s    frame=   67 fps= 18 q=31.0 size=     830kB time=3.33 bitrate=2039.5kbits/s    frame=   77 fps= 17 q=31.0 size=     862kB time=3.83 bitrate=1842.3kbits/s    frame=   81 fps= 17 q=31.0 size=     864kB time=4.04 bitrate=1751.5kbits/s    frame=   92 fps= 17 q=31.0 size=     897kB time=4.58 bitrate=1602.9kbits/s    frame=  102 fps= 17 q=31.0 size=     929kB time=5.08 bitrate=1497.2kbits/s    frame=  113 fps= 17 q=31.0 size=     962kB time=5.62 bitrate=1401.9kbits/s    frame=  119 fps= 17 q=31.0 size=     966kB time=5.96 bitrate=1327.8kbits/s    frame=  129 fps= 17 q=31.0 size=     998kB time=6.46 bitrate=1265.4kbits/s    frame=  137 fps= 17 q=31.0 Lsize=    1029kB time=6.83 bitrate=1234.0kbits/s    video:1027kB audio:0kB global headers:0kB muxing overhead 0.228410%